<mxfile host="app.diagrams.net" agent="Mozilla/5.0 (X11; Ubuntu; Linux x86_64; rv:136.0) Gecko/20100101 Firefox/136.0" version="26.1.3">
  <diagram name="Page-1" id="e56a1550-8fbb-45ad-956c-1786394a9013">
    <mxGraphModel grid="1" page="1" gridSize="10" guides="1" tooltips="1" connect="1" arrows="1" fold="1" pageScale="1" pageWidth="1100" pageHeight="850" background="none" math="0" shadow="0">
      <root>
        <mxCell id="0" />
        <mxCell id="1" parent="0" />
        <mxCell id="5kgFdut1mRX2VbzAi-Et-53" value="" style="group;verticalAlign=top;align=left;" connectable="0" vertex="1" parent="1">
          <mxGeometry x="40" y="-780" width="1060" height="390" as="geometry" />
        </mxCell>
        <mxCell id="5kgFdut1mRX2VbzAi-Et-52" value="&lt;div align=&quot;left&quot;&gt;&lt;b&gt;&lt;font style=&quot;font-size: 31px;&quot;&gt;DER LOGICO&lt;/font&gt;&lt;/b&gt;&lt;/div&gt;" style="rounded=0;whiteSpace=wrap;html=1;fillColor=#6d8764;fontColor=#ffffff;strokeColor=#3A5431;align=left;verticalAlign=top;" vertex="1" parent="5kgFdut1mRX2VbzAi-Et-53">
          <mxGeometry x="-40" y="-70" width="1100" height="460" as="geometry" />
        </mxCell>
        <mxCell id="5kgFdut1mRX2VbzAi-Et-5" value="Passenger" style="rounded=1;whiteSpace=wrap;html=1;fillColor=#e51400;fontColor=#ffffff;strokeColor=#B20000;" vertex="1" parent="5kgFdut1mRX2VbzAi-Et-53">
          <mxGeometry x="240" y="60" width="110" height="40" as="geometry" />
        </mxCell>
        <mxCell id="5kgFdut1mRX2VbzAi-Et-6" value="Driver" style="rounded=1;whiteSpace=wrap;html=1;fillColor=#e51400;fontColor=#ffffff;strokeColor=#B20000;" vertex="1" parent="5kgFdut1mRX2VbzAi-Et-53">
          <mxGeometry x="240" y="220" width="110" height="40" as="geometry" />
        </mxCell>
        <mxCell id="5kgFdut1mRX2VbzAi-Et-7" value="User" style="rounded=1;whiteSpace=wrap;html=1;fillColor=#e51400;fontColor=#ffffff;strokeColor=#B20000;" vertex="1" parent="5kgFdut1mRX2VbzAi-Et-53">
          <mxGeometry y="30" width="110" height="40" as="geometry" />
        </mxCell>
        <mxCell id="5kgFdut1mRX2VbzAi-Et-8" value="user_id" style="ellipse;whiteSpace=wrap;html=1;fillColor=#fad9d5;strokeColor=#ae4132;" vertex="1" parent="5kgFdut1mRX2VbzAi-Et-53">
          <mxGeometry x="290" y="270" width="100" height="50" as="geometry" />
        </mxCell>
        <mxCell id="5kgFdut1mRX2VbzAi-Et-9" value="user_id" style="ellipse;whiteSpace=wrap;html=1;fillColor=#fad9d5;strokeColor=#ae4132;" vertex="1" parent="5kgFdut1mRX2VbzAi-Et-53">
          <mxGeometry x="290" width="100" height="50" as="geometry" />
        </mxCell>
        <mxCell id="5kgFdut1mRX2VbzAi-Et-10" value="user_id" style="ellipse;whiteSpace=wrap;html=1;fillColor=#0050ef;fontColor=#ffffff;strokeColor=#001DBC;" vertex="1" parent="5kgFdut1mRX2VbzAi-Et-53">
          <mxGeometry y="90" width="100" height="50" as="geometry" />
        </mxCell>
        <mxCell id="5kgFdut1mRX2VbzAi-Et-11" value="driver_id" style="ellipse;whiteSpace=wrap;html=1;fillColor=#0050ef;fontColor=#ffffff;strokeColor=#001DBC;" vertex="1" parent="5kgFdut1mRX2VbzAi-Et-53">
          <mxGeometry x="180" y="270" width="100" height="50" as="geometry" />
        </mxCell>
        <mxCell id="5kgFdut1mRX2VbzAi-Et-12" value="passenger_id" style="ellipse;whiteSpace=wrap;html=1;fillColor=#0050ef;fontColor=#ffffff;strokeColor=#001DBC;" vertex="1" parent="5kgFdut1mRX2VbzAi-Et-53">
          <mxGeometry x="180" width="100" height="50" as="geometry" />
        </mxCell>
        <mxCell id="5kgFdut1mRX2VbzAi-Et-13" value="&lt;div&gt;Relationship&lt;/div&gt;" style="rhombus;whiteSpace=wrap;html=1;fillColor=#e3c800;strokeColor=#B09500;fontColor=#000000;" vertex="1" parent="5kgFdut1mRX2VbzAi-Et-53">
          <mxGeometry x="450" y="120" width="80" height="80" as="geometry" />
        </mxCell>
        <mxCell id="5kgFdut1mRX2VbzAi-Et-14" value="Trip" style="rounded=1;whiteSpace=wrap;html=1;fillColor=#e51400;fontColor=#ffffff;strokeColor=#B20000;" vertex="1" parent="5kgFdut1mRX2VbzAi-Et-53">
          <mxGeometry x="600" y="140" width="110" height="40" as="geometry" />
        </mxCell>
        <mxCell id="5kgFdut1mRX2VbzAi-Et-15" value="Score" style="rounded=1;whiteSpace=wrap;html=1;fillColor=#e51400;fontColor=#ffffff;strokeColor=#B20000;" vertex="1" parent="5kgFdut1mRX2VbzAi-Et-53">
          <mxGeometry x="930" y="140" width="110" height="40" as="geometry" />
        </mxCell>
        <mxCell id="5kgFdut1mRX2VbzAi-Et-16" value="&lt;div&gt;Relationship&lt;/div&gt;" style="rhombus;whiteSpace=wrap;html=1;fillColor=#e3c800;strokeColor=#B09500;fontColor=#000000;" vertex="1" parent="5kgFdut1mRX2VbzAi-Et-53">
          <mxGeometry x="790" y="120" width="80" height="80" as="geometry" />
        </mxCell>
        <mxCell id="5kgFdut1mRX2VbzAi-Et-21" style="rounded=0;orthogonalLoop=1;jettySize=auto;html=1;exitX=0;exitY=0.5;exitDx=0;exitDy=0;entryX=1;entryY=0.5;entryDx=0;entryDy=0;endArrow=none;startFill=0;" edge="1" parent="5kgFdut1mRX2VbzAi-Et-53" source="5kgFdut1mRX2VbzAi-Et-18" target="5kgFdut1mRX2VbzAi-Et-7">
          <mxGeometry relative="1" as="geometry" />
        </mxCell>
        <mxCell id="5kgFdut1mRX2VbzAi-Et-22" style="rounded=0;orthogonalLoop=1;jettySize=auto;html=1;exitX=1;exitY=0;exitDx=0;exitDy=0;entryX=0;entryY=1;entryDx=0;entryDy=0;endArrow=none;startFill=0;" edge="1" parent="5kgFdut1mRX2VbzAi-Et-53" source="5kgFdut1mRX2VbzAi-Et-18" target="5kgFdut1mRX2VbzAi-Et-5">
          <mxGeometry relative="1" as="geometry" />
        </mxCell>
        <mxCell id="5kgFdut1mRX2VbzAi-Et-23" style="rounded=0;orthogonalLoop=1;jettySize=auto;html=1;exitX=1;exitY=1;exitDx=0;exitDy=0;entryX=0;entryY=0;entryDx=0;entryDy=0;endArrow=none;startFill=0;" edge="1" parent="5kgFdut1mRX2VbzAi-Et-53" source="5kgFdut1mRX2VbzAi-Et-18" target="5kgFdut1mRX2VbzAi-Et-6">
          <mxGeometry relative="1" as="geometry" />
        </mxCell>
        <mxCell id="5kgFdut1mRX2VbzAi-Et-18" value="d" style="ellipse;whiteSpace=wrap;html=1;aspect=fixed;fillColor=#008a00;fontColor=#ffffff;strokeColor=#005700;" vertex="1" parent="5kgFdut1mRX2VbzAi-Et-53">
          <mxGeometry x="160" y="120" width="35" height="35" as="geometry" />
        </mxCell>
        <mxCell id="5kgFdut1mRX2VbzAi-Et-24" style="rounded=0;orthogonalLoop=1;jettySize=auto;html=1;exitX=1;exitY=0;exitDx=0;exitDy=0;endArrow=none;startFill=0;entryX=0;entryY=1;entryDx=0;entryDy=0;" edge="1" parent="5kgFdut1mRX2VbzAi-Et-53" source="5kgFdut1mRX2VbzAi-Et-6" target="5kgFdut1mRX2VbzAi-Et-13">
          <mxGeometry relative="1" as="geometry">
            <mxPoint x="300" y="602" as="sourcePoint" />
            <mxPoint x="480" y="620" as="targetPoint" />
          </mxGeometry>
        </mxCell>
        <mxCell id="5kgFdut1mRX2VbzAi-Et-26" style="rounded=0;orthogonalLoop=1;jettySize=auto;html=1;exitX=0;exitY=0;exitDx=0;exitDy=0;endArrow=none;startFill=0;entryX=1;entryY=0.5;entryDx=0;entryDy=0;" edge="1" parent="5kgFdut1mRX2VbzAi-Et-53" source="5kgFdut1mRX2VbzAi-Et-13" target="5kgFdut1mRX2VbzAi-Et-5">
          <mxGeometry relative="1" as="geometry">
            <mxPoint x="440" y="630" as="sourcePoint" />
            <mxPoint x="490" y="600" as="targetPoint" />
          </mxGeometry>
        </mxCell>
        <mxCell id="5kgFdut1mRX2VbzAi-Et-27" style="rounded=0;orthogonalLoop=1;jettySize=auto;html=1;exitX=1;exitY=0.5;exitDx=0;exitDy=0;endArrow=none;startFill=0;entryX=0;entryY=0.5;entryDx=0;entryDy=0;" edge="1" parent="5kgFdut1mRX2VbzAi-Et-53" source="5kgFdut1mRX2VbzAi-Et-13" target="5kgFdut1mRX2VbzAi-Et-14">
          <mxGeometry relative="1" as="geometry">
            <mxPoint x="450" y="640" as="sourcePoint" />
            <mxPoint x="500" y="610" as="targetPoint" />
          </mxGeometry>
        </mxCell>
        <mxCell id="5kgFdut1mRX2VbzAi-Et-28" style="rounded=0;orthogonalLoop=1;jettySize=auto;html=1;exitX=1;exitY=0.5;exitDx=0;exitDy=0;endArrow=none;startFill=0;entryX=0;entryY=0.5;entryDx=0;entryDy=0;" edge="1" parent="5kgFdut1mRX2VbzAi-Et-53" source="5kgFdut1mRX2VbzAi-Et-43" target="5kgFdut1mRX2VbzAi-Et-16">
          <mxGeometry relative="1" as="geometry">
            <mxPoint x="490" y="568" as="sourcePoint" />
            <mxPoint x="440" y="530" as="targetPoint" />
          </mxGeometry>
        </mxCell>
        <mxCell id="5kgFdut1mRX2VbzAi-Et-29" style="rounded=0;orthogonalLoop=1;jettySize=auto;html=1;exitX=0;exitY=0.5;exitDx=0;exitDy=0;endArrow=none;startFill=0;entryX=1;entryY=0.5;entryDx=0;entryDy=0;" edge="1" parent="5kgFdut1mRX2VbzAi-Et-53" source="5kgFdut1mRX2VbzAi-Et-15" target="5kgFdut1mRX2VbzAi-Et-16">
          <mxGeometry relative="1" as="geometry">
            <mxPoint x="690" y="588" as="sourcePoint" />
            <mxPoint x="760" y="588" as="targetPoint" />
          </mxGeometry>
        </mxCell>
        <mxCell id="5kgFdut1mRX2VbzAi-Et-33" value="1" style="ellipse;shape=cloud;whiteSpace=wrap;html=1;fillColor=#d0cee2;strokeColor=#56517e;" vertex="1" parent="5kgFdut1mRX2VbzAi-Et-53">
          <mxGeometry x="360" y="225" width="40" height="30" as="geometry" />
        </mxCell>
        <mxCell id="5kgFdut1mRX2VbzAi-Et-35" value="1" style="ellipse;shape=cloud;whiteSpace=wrap;html=1;fillColor=#d0cee2;strokeColor=#56517e;" vertex="1" parent="5kgFdut1mRX2VbzAi-Et-53">
          <mxGeometry x="350" y="50" width="40" height="30" as="geometry" />
        </mxCell>
        <mxCell id="5kgFdut1mRX2VbzAi-Et-39" value="n" style="ellipse;shape=cloud;whiteSpace=wrap;html=1;fillColor=#d0cee2;strokeColor=#56517e;" vertex="1" parent="5kgFdut1mRX2VbzAi-Et-53">
          <mxGeometry x="550" y="122.5" width="40" height="30" as="geometry" />
        </mxCell>
        <mxCell id="5kgFdut1mRX2VbzAi-Et-47" value="" style="rounded=0;orthogonalLoop=1;jettySize=auto;html=1;exitX=1;exitY=0.5;exitDx=0;exitDy=0;endArrow=none;startFill=0;entryX=0;entryY=0.5;entryDx=0;entryDy=0;" edge="1" parent="5kgFdut1mRX2VbzAi-Et-53" source="5kgFdut1mRX2VbzAi-Et-14" target="5kgFdut1mRX2VbzAi-Et-43">
          <mxGeometry relative="1" as="geometry">
            <mxPoint x="710" y="160" as="sourcePoint" />
            <mxPoint x="790" y="160" as="targetPoint" />
          </mxGeometry>
        </mxCell>
        <mxCell id="5kgFdut1mRX2VbzAi-Et-43" value="" style="ellipse;whiteSpace=wrap;html=1;aspect=fixed;fillColor=#b1ddf0;strokeColor=#10739e;" vertex="1" parent="5kgFdut1mRX2VbzAi-Et-53">
          <mxGeometry x="760" y="150" width="20" height="20" as="geometry" />
        </mxCell>
        <mxCell id="5kgFdut1mRX2VbzAi-Et-48" value="1" style="ellipse;shape=cloud;whiteSpace=wrap;html=1;fillColor=#d0cee2;strokeColor=#56517e;" vertex="1" parent="5kgFdut1mRX2VbzAi-Et-53">
          <mxGeometry x="710" y="125" width="40" height="30" as="geometry" />
        </mxCell>
        <mxCell id="5kgFdut1mRX2VbzAi-Et-50" value="1" style="ellipse;shape=cloud;whiteSpace=wrap;html=1;fillColor=#d0cee2;strokeColor=#56517e;" vertex="1" parent="5kgFdut1mRX2VbzAi-Et-53">
          <mxGeometry x="890" y="122.5" width="40" height="30" as="geometry" />
        </mxCell>
        <mxCell id="5kgFdut1mRX2VbzAi-Et-51" value="trip_id" style="ellipse;whiteSpace=wrap;html=1;fillColor=#0050ef;fontColor=#ffffff;strokeColor=#001DBC;" vertex="1" parent="5kgFdut1mRX2VbzAi-Et-53">
          <mxGeometry x="605" y="200" width="100" height="50" as="geometry" />
        </mxCell>
        <mxCell id="5kgFdut1mRX2VbzAi-Et-151" value="score_id" style="ellipse;whiteSpace=wrap;html=1;fillColor=#0050ef;fontColor=#ffffff;strokeColor=#001DBC;" vertex="1" parent="5kgFdut1mRX2VbzAi-Et-53">
          <mxGeometry x="930" y="190" width="100" height="50" as="geometry" />
        </mxCell>
        <mxCell id="5kgFdut1mRX2VbzAi-Et-87" value="&lt;font style=&quot;font-size: 30px;&quot;&gt;&lt;b&gt;Modelo logico relacional&lt;/b&gt;&lt;/font&gt;" style="rounded=0;whiteSpace=wrap;html=1;fillColor=#6d8764;fontColor=#ffffff;strokeColor=#3A5431;align=left;verticalAlign=top;" vertex="1" parent="1">
          <mxGeometry y="-380" width="540" height="370" as="geometry" />
        </mxCell>
        <mxCell id="5kgFdut1mRX2VbzAi-Et-88" value="&lt;font style=&quot;font-size: 30px;&quot;&gt;&lt;b&gt;Restricciones&lt;/b&gt;&lt;/font&gt;" style="rounded=0;whiteSpace=wrap;html=1;fillColor=#6d8764;fontColor=#ffffff;strokeColor=#3A5431;align=left;verticalAlign=top;" vertex="1" parent="1">
          <mxGeometry x="550" y="-380" width="550" height="370" as="geometry" />
        </mxCell>
        <mxCell id="5kgFdut1mRX2VbzAi-Et-90" value="" style="shape=table;startSize=0;container=1;collapsible=1;childLayout=tableLayout;fixedRows=1;rowLines=0;fontStyle=0;align=center;resizeLast=1;strokeColor=none;fillColor=none;collapsible=0;whiteSpace=wrap;html=1;" vertex="1" parent="1">
          <mxGeometry x="420" y="-420" width="180" height="30" as="geometry" />
        </mxCell>
        <mxCell id="5kgFdut1mRX2VbzAi-Et-91" value="" style="shape=tableRow;horizontal=0;startSize=0;swimlaneHead=0;swimlaneBody=0;fillColor=none;collapsible=0;dropTarget=0;points=[[0,0.5],[1,0.5]];portConstraint=eastwest;top=0;left=0;right=0;bottom=0;" vertex="1" parent="5kgFdut1mRX2VbzAi-Et-90">
          <mxGeometry width="180" height="30" as="geometry" />
        </mxCell>
        <mxCell id="5kgFdut1mRX2VbzAi-Et-92" value="" style="shape=partialRectangle;connectable=0;fillColor=none;top=0;left=0;bottom=0;right=0;editable=1;overflow=hidden;" vertex="1" parent="5kgFdut1mRX2VbzAi-Et-91">
          <mxGeometry width="30" height="30" as="geometry">
            <mxRectangle width="30" height="30" as="alternateBounds" />
          </mxGeometry>
        </mxCell>
        <mxCell id="5kgFdut1mRX2VbzAi-Et-93" value="Row" style="shape=partialRectangle;connectable=0;fillColor=none;top=0;left=0;bottom=0;right=0;align=left;spacingLeft=6;overflow=hidden;" vertex="1" parent="5kgFdut1mRX2VbzAi-Et-91">
          <mxGeometry x="30" width="150" height="30" as="geometry">
            <mxRectangle width="150" height="30" as="alternateBounds" />
          </mxGeometry>
        </mxCell>
        <mxCell id="5kgFdut1mRX2VbzAi-Et-94" value="" style="shape=table;startSize=0;container=1;collapsible=1;childLayout=tableLayout;fixedRows=1;rowLines=0;fontStyle=0;align=center;resizeLast=1;strokeColor=none;fillColor=light-dark(#FFFFFF,#FF9281);collapsible=0;" vertex="1" parent="1">
          <mxGeometry x="20" y="-320" width="480" height="30" as="geometry" />
        </mxCell>
        <mxCell id="5kgFdut1mRX2VbzAi-Et-95" value="" style="shape=tableRow;horizontal=0;startSize=0;swimlaneHead=0;swimlaneBody=0;fillColor=none;collapsible=0;dropTarget=0;points=[[0,0.5],[1,0.5]];portConstraint=eastwest;top=0;left=0;right=0;bottom=1;" vertex="1" parent="5kgFdut1mRX2VbzAi-Et-94">
          <mxGeometry width="480" height="30" as="geometry" />
        </mxCell>
        <mxCell id="5kgFdut1mRX2VbzAi-Et-96" value="&lt;span style=&quot;color: light-dark(rgb(0, 0, 0), rgb(0, 0, 0));&quot;&gt;Passenger&lt;/span&gt;" style="shape=partialRectangle;connectable=0;fillColor=none;top=0;left=0;bottom=0;right=0;fontStyle=1;overflow=hidden;whiteSpace=wrap;html=1;" vertex="1" parent="5kgFdut1mRX2VbzAi-Et-95">
          <mxGeometry width="80" height="30" as="geometry">
            <mxRectangle width="80" height="30" as="alternateBounds" />
          </mxGeometry>
        </mxCell>
        <mxCell id="5kgFdut1mRX2VbzAi-Et-97" value="" style="shape=partialRectangle;connectable=0;fillColor=none;top=0;left=0;bottom=0;right=0;align=left;spacingLeft=6;fontStyle=5;overflow=hidden;whiteSpace=wrap;html=1;" vertex="1" parent="5kgFdut1mRX2VbzAi-Et-95">
          <mxGeometry x="80" width="400" height="30" as="geometry">
            <mxRectangle width="400" height="30" as="alternateBounds" />
          </mxGeometry>
        </mxCell>
        <mxCell id="5kgFdut1mRX2VbzAi-Et-102" value="passenger_id" style="shape=partialRectangle;connectable=0;fillColor=#dae8fc;top=0;left=0;bottom=0;right=0;align=left;spacingLeft=6;fontStyle=5;overflow=hidden;whiteSpace=wrap;html=1;gradientColor=#7ea6e0;strokeColor=#6c8ebf;" vertex="1" parent="1">
          <mxGeometry x="100" y="-320" width="90" height="30" as="geometry">
            <mxRectangle width="110" height="30" as="alternateBounds" />
          </mxGeometry>
        </mxCell>
        <mxCell id="5kgFdut1mRX2VbzAi-Et-105" value="user_id" style="shape=partialRectangle;connectable=0;fillColor=#fad9d5;top=0;left=0;bottom=0;right=0;align=left;spacingLeft=6;fontStyle=5;overflow=hidden;whiteSpace=wrap;html=1;strokeColor=#ae4132;" vertex="1" parent="1">
          <mxGeometry x="190" y="-320" width="60" height="30" as="geometry">
            <mxRectangle width="110" height="30" as="alternateBounds" />
          </mxGeometry>
        </mxCell>
        <mxCell id="5kgFdut1mRX2VbzAi-Et-106" value="name" style="shape=partialRectangle;connectable=0;fillColor=#b0e3e6;top=0;left=0;bottom=0;right=0;align=left;spacingLeft=6;fontStyle=5;overflow=hidden;whiteSpace=wrap;html=1;strokeColor=#0e8088;" vertex="1" parent="1">
          <mxGeometry x="260" y="-320" width="50" height="30" as="geometry">
            <mxRectangle width="110" height="30" as="alternateBounds" />
          </mxGeometry>
        </mxCell>
        <mxCell id="5kgFdut1mRX2VbzAi-Et-107" value="lastname" style="shape=partialRectangle;connectable=0;fillColor=#b0e3e6;top=0;left=0;bottom=0;right=0;align=left;spacingLeft=6;fontStyle=5;overflow=hidden;whiteSpace=wrap;html=1;strokeColor=#0e8088;" vertex="1" parent="1">
          <mxGeometry x="310" y="-320" width="70" height="30" as="geometry">
            <mxRectangle width="110" height="30" as="alternateBounds" />
          </mxGeometry>
        </mxCell>
        <mxCell id="5kgFdut1mRX2VbzAi-Et-108" value="balance" style="shape=partialRectangle;connectable=0;fillColor=#b0e3e6;top=0;left=0;bottom=0;right=0;align=left;spacingLeft=6;fontStyle=5;overflow=hidden;whiteSpace=wrap;html=1;strokeColor=#0e8088;" vertex="1" parent="1">
          <mxGeometry x="380" y="-320" width="60" height="30" as="geometry">
            <mxRectangle width="110" height="30" as="alternateBounds" />
          </mxGeometry>
        </mxCell>
        <mxCell id="5kgFdut1mRX2VbzAi-Et-109" value="phone" style="shape=partialRectangle;connectable=0;fillColor=#b0e3e6;top=0;left=0;bottom=0;right=0;align=left;spacingLeft=6;fontStyle=5;overflow=hidden;whiteSpace=wrap;html=1;strokeColor=#0e8088;" vertex="1" parent="1">
          <mxGeometry x="440" y="-320" width="60" height="30" as="geometry">
            <mxRectangle width="110" height="30" as="alternateBounds" />
          </mxGeometry>
        </mxCell>
        <mxCell id="5kgFdut1mRX2VbzAi-Et-114" value="" style="shape=table;startSize=0;container=1;collapsible=1;childLayout=tableLayout;fixedRows=1;rowLines=0;fontStyle=0;align=center;resizeLast=1;strokeColor=none;fillColor=light-dark(#FFFFFF,#FF9281);collapsible=0;" vertex="1" parent="1">
          <mxGeometry x="20" y="-260" width="490" height="30" as="geometry" />
        </mxCell>
        <mxCell id="5kgFdut1mRX2VbzAi-Et-115" value="" style="shape=tableRow;horizontal=0;startSize=0;swimlaneHead=0;swimlaneBody=0;fillColor=none;collapsible=0;dropTarget=0;points=[[0,0.5],[1,0.5]];portConstraint=eastwest;top=0;left=0;right=0;bottom=1;" vertex="1" parent="5kgFdut1mRX2VbzAi-Et-114">
          <mxGeometry width="490" height="30" as="geometry" />
        </mxCell>
        <mxCell id="5kgFdut1mRX2VbzAi-Et-116" value="&lt;span style=&quot;color: light-dark(rgb(0, 0, 0), rgb(0, 0, 0));&quot;&gt;Driver&lt;/span&gt;" style="shape=partialRectangle;connectable=0;fillColor=none;top=0;left=0;bottom=0;right=0;fontStyle=1;overflow=hidden;whiteSpace=wrap;html=1;" vertex="1" parent="5kgFdut1mRX2VbzAi-Et-115">
          <mxGeometry width="80" height="30" as="geometry">
            <mxRectangle width="80" height="30" as="alternateBounds" />
          </mxGeometry>
        </mxCell>
        <mxCell id="5kgFdut1mRX2VbzAi-Et-117" value="" style="shape=partialRectangle;connectable=0;fillColor=none;top=0;left=0;bottom=0;right=0;align=left;spacingLeft=6;fontStyle=5;overflow=hidden;whiteSpace=wrap;html=1;" vertex="1" parent="5kgFdut1mRX2VbzAi-Et-115">
          <mxGeometry x="80" width="410" height="30" as="geometry">
            <mxRectangle width="410" height="30" as="alternateBounds" />
          </mxGeometry>
        </mxCell>
        <mxCell id="5kgFdut1mRX2VbzAi-Et-118" value="driver_id" style="shape=partialRectangle;connectable=0;fillColor=#dae8fc;top=0;left=0;bottom=0;right=0;align=left;spacingLeft=6;fontStyle=5;overflow=hidden;whiteSpace=wrap;html=1;gradientColor=#7ea6e0;strokeColor=#6c8ebf;" vertex="1" parent="1">
          <mxGeometry x="100" y="-260" width="70" height="30" as="geometry">
            <mxRectangle width="110" height="30" as="alternateBounds" />
          </mxGeometry>
        </mxCell>
        <mxCell id="5kgFdut1mRX2VbzAi-Et-119" value="user_id" style="shape=partialRectangle;connectable=0;fillColor=#fad9d5;top=0;left=0;bottom=0;right=0;align=left;spacingLeft=6;fontStyle=5;overflow=hidden;whiteSpace=wrap;html=1;strokeColor=#ae4132;" vertex="1" parent="1">
          <mxGeometry x="170" y="-260" width="60" height="30" as="geometry">
            <mxRectangle width="110" height="30" as="alternateBounds" />
          </mxGeometry>
        </mxCell>
        <mxCell id="5kgFdut1mRX2VbzAi-Et-120" value="name" style="shape=partialRectangle;connectable=0;fillColor=#b0e3e6;top=0;left=0;bottom=0;right=0;align=left;spacingLeft=6;fontStyle=5;overflow=hidden;whiteSpace=wrap;html=1;strokeColor=#0e8088;" vertex="1" parent="1">
          <mxGeometry x="240" y="-260" width="50" height="30" as="geometry">
            <mxRectangle width="110" height="30" as="alternateBounds" />
          </mxGeometry>
        </mxCell>
        <mxCell id="5kgFdut1mRX2VbzAi-Et-121" value="lastname" style="shape=partialRectangle;connectable=0;fillColor=#b0e3e6;top=0;left=0;bottom=0;right=0;align=left;spacingLeft=6;fontStyle=5;overflow=hidden;whiteSpace=wrap;html=1;strokeColor=#0e8088;" vertex="1" parent="1">
          <mxGeometry x="290" y="-260" width="70" height="30" as="geometry">
            <mxRectangle width="110" height="30" as="alternateBounds" />
          </mxGeometry>
        </mxCell>
        <mxCell id="5kgFdut1mRX2VbzAi-Et-122" value="balance" style="shape=partialRectangle;connectable=0;fillColor=#b0e3e6;top=0;left=0;bottom=0;right=0;align=left;spacingLeft=6;fontStyle=5;overflow=hidden;whiteSpace=wrap;html=1;strokeColor=#0e8088;" vertex="1" parent="1">
          <mxGeometry x="360" y="-260" width="60" height="30" as="geometry">
            <mxRectangle width="110" height="30" as="alternateBounds" />
          </mxGeometry>
        </mxCell>
        <mxCell id="5kgFdut1mRX2VbzAi-Et-123" value="license_plate" style="shape=partialRectangle;connectable=0;fillColor=#b0e3e6;top=0;left=0;bottom=0;right=0;align=left;spacingLeft=6;fontStyle=5;overflow=hidden;whiteSpace=wrap;html=1;strokeColor=#0e8088;" vertex="1" parent="1">
          <mxGeometry x="420" y="-260" width="90" height="30" as="geometry">
            <mxRectangle width="110" height="30" as="alternateBounds" />
          </mxGeometry>
        </mxCell>
        <mxCell id="5kgFdut1mRX2VbzAi-Et-124" value="vehicle_model" style="shape=partialRectangle;connectable=0;fillColor=#b0e3e6;top=0;left=0;bottom=0;right=0;align=left;spacingLeft=6;fontStyle=5;overflow=hidden;whiteSpace=wrap;html=1;strokeColor=#0e8088;" vertex="1" parent="1">
          <mxGeometry x="240" y="-230" width="100" height="30" as="geometry">
            <mxRectangle width="110" height="30" as="alternateBounds" />
          </mxGeometry>
        </mxCell>
        <mxCell id="5kgFdut1mRX2VbzAi-Et-125" value="vehicle_brand" style="shape=partialRectangle;connectable=0;fillColor=#b0e3e6;top=0;left=0;bottom=0;right=0;align=left;spacingLeft=6;fontStyle=5;overflow=hidden;whiteSpace=wrap;html=1;strokeColor=#0e8088;" vertex="1" parent="1">
          <mxGeometry x="340" y="-230" width="100" height="30" as="geometry">
            <mxRectangle width="110" height="30" as="alternateBounds" />
          </mxGeometry>
        </mxCell>
        <mxCell id="5kgFdut1mRX2VbzAi-Et-126" value="" style="shape=table;startSize=0;container=1;collapsible=1;childLayout=tableLayout;fixedRows=1;rowLines=0;fontStyle=0;align=center;resizeLast=1;strokeColor=none;fillColor=light-dark(#FFFFFF,#FF9281);collapsible=0;" vertex="1" parent="1">
          <mxGeometry x="20" y="-190" width="430" height="30" as="geometry" />
        </mxCell>
        <mxCell id="5kgFdut1mRX2VbzAi-Et-127" value="" style="shape=tableRow;horizontal=0;startSize=0;swimlaneHead=0;swimlaneBody=0;fillColor=none;collapsible=0;dropTarget=0;points=[[0,0.5],[1,0.5]];portConstraint=eastwest;top=0;left=0;right=0;bottom=1;" vertex="1" parent="5kgFdut1mRX2VbzAi-Et-126">
          <mxGeometry width="430" height="30" as="geometry" />
        </mxCell>
        <mxCell id="5kgFdut1mRX2VbzAi-Et-128" value="&lt;span style=&quot;color: light-dark(rgb(0, 0, 0), rgb(0, 0, 0));&quot;&gt;Trip&lt;/span&gt;" style="shape=partialRectangle;connectable=0;fillColor=none;top=0;left=0;bottom=0;right=0;fontStyle=1;overflow=hidden;whiteSpace=wrap;html=1;" vertex="1" parent="5kgFdut1mRX2VbzAi-Et-127">
          <mxGeometry width="80" height="30" as="geometry">
            <mxRectangle width="80" height="30" as="alternateBounds" />
          </mxGeometry>
        </mxCell>
        <mxCell id="5kgFdut1mRX2VbzAi-Et-129" value="" style="shape=partialRectangle;connectable=0;fillColor=none;top=0;left=0;bottom=0;right=0;align=left;spacingLeft=6;fontStyle=5;overflow=hidden;whiteSpace=wrap;html=1;" vertex="1" parent="5kgFdut1mRX2VbzAi-Et-127">
          <mxGeometry x="80" width="350" height="30" as="geometry">
            <mxRectangle width="350" height="30" as="alternateBounds" />
          </mxGeometry>
        </mxCell>
        <mxCell id="5kgFdut1mRX2VbzAi-Et-130" value="trip_id" style="shape=partialRectangle;connectable=0;fillColor=#dae8fc;top=0;left=0;bottom=0;right=0;align=left;spacingLeft=6;fontStyle=5;overflow=hidden;whiteSpace=wrap;html=1;gradientColor=#7ea6e0;strokeColor=#6c8ebf;" vertex="1" parent="1">
          <mxGeometry x="100" y="-190" width="50" height="30" as="geometry">
            <mxRectangle width="110" height="30" as="alternateBounds" />
          </mxGeometry>
        </mxCell>
        <mxCell id="5kgFdut1mRX2VbzAi-Et-132" value="date" style="shape=partialRectangle;connectable=0;fillColor=#b0e3e6;top=0;left=0;bottom=0;right=0;align=left;spacingLeft=6;fontStyle=5;overflow=hidden;whiteSpace=wrap;html=1;strokeColor=#0e8088;" vertex="1" parent="1">
          <mxGeometry x="170" y="-190" width="40" height="30" as="geometry">
            <mxRectangle width="110" height="30" as="alternateBounds" />
          </mxGeometry>
        </mxCell>
        <mxCell id="5kgFdut1mRX2VbzAi-Et-133" value="duration" style="shape=partialRectangle;connectable=0;fillColor=#b0e3e6;top=0;left=0;bottom=0;right=0;align=left;spacingLeft=6;fontStyle=5;overflow=hidden;whiteSpace=wrap;html=1;strokeColor=#0e8088;" vertex="1" parent="1">
          <mxGeometry x="210" y="-190" width="60" height="30" as="geometry">
            <mxRectangle width="110" height="30" as="alternateBounds" />
          </mxGeometry>
        </mxCell>
        <mxCell id="5kgFdut1mRX2VbzAi-Et-134" value="price" style="shape=partialRectangle;connectable=0;fillColor=#b0e3e6;top=0;left=0;bottom=0;right=0;align=left;spacingLeft=6;fontStyle=5;overflow=hidden;whiteSpace=wrap;html=1;strokeColor=#0e8088;" vertex="1" parent="1">
          <mxGeometry x="270" y="-190" width="50" height="30" as="geometry">
            <mxRectangle width="110" height="30" as="alternateBounds" />
          </mxGeometry>
        </mxCell>
        <mxCell id="5kgFdut1mRX2VbzAi-Et-135" value="origin" style="shape=partialRectangle;connectable=0;fillColor=#b0e3e6;top=0;left=0;bottom=0;right=0;align=left;spacingLeft=6;fontStyle=5;overflow=hidden;whiteSpace=wrap;html=1;strokeColor=#0e8088;" vertex="1" parent="1">
          <mxGeometry x="320" y="-190" width="50" height="30" as="geometry">
            <mxRectangle width="110" height="30" as="alternateBounds" />
          </mxGeometry>
        </mxCell>
        <mxCell id="5kgFdut1mRX2VbzAi-Et-136" value="destination" style="shape=partialRectangle;connectable=0;fillColor=#b0e3e6;top=0;left=0;bottom=0;right=0;align=left;spacingLeft=6;fontStyle=5;overflow=hidden;whiteSpace=wrap;html=1;strokeColor=#0e8088;" vertex="1" parent="1">
          <mxGeometry x="370" y="-190" width="80" height="30" as="geometry">
            <mxRectangle width="110" height="30" as="alternateBounds" />
          </mxGeometry>
        </mxCell>
        <mxCell id="5kgFdut1mRX2VbzAi-Et-137" value="passenger_ammount" style="shape=partialRectangle;connectable=0;fillColor=#b0e3e6;top=0;left=0;bottom=0;right=0;align=left;spacingLeft=6;fontStyle=5;overflow=hidden;whiteSpace=wrap;html=1;strokeColor=#0e8088;" vertex="1" parent="1">
          <mxGeometry x="170" y="-160" width="140" height="30" as="geometry">
            <mxRectangle width="110" height="30" as="alternateBounds" />
          </mxGeometry>
        </mxCell>
        <mxCell id="5kgFdut1mRX2VbzAi-Et-138" value="" style="shape=table;startSize=0;container=1;collapsible=1;childLayout=tableLayout;fixedRows=1;rowLines=0;fontStyle=0;align=center;resizeLast=1;strokeColor=#b46504;fillColor=light-dark(#FAD7AC,#675000);collapsible=0;" vertex="1" parent="1">
          <mxGeometry x="20" y="-120" width="400" height="30" as="geometry" />
        </mxCell>
        <mxCell id="5kgFdut1mRX2VbzAi-Et-139" value="" style="shape=tableRow;horizontal=0;startSize=0;swimlaneHead=0;swimlaneBody=0;fillColor=none;collapsible=0;dropTarget=0;points=[[0,0.5],[1,0.5]];portConstraint=eastwest;top=0;left=0;right=0;bottom=1;" vertex="1" parent="5kgFdut1mRX2VbzAi-Et-138">
          <mxGeometry width="400" height="30" as="geometry" />
        </mxCell>
        <mxCell id="5kgFdut1mRX2VbzAi-Et-140" value="Trip_Driver_Passenger" style="shape=partialRectangle;connectable=0;fillColor=none;top=0;left=0;bottom=0;right=0;fontStyle=1;overflow=hidden;whiteSpace=wrap;html=1;" vertex="1" parent="5kgFdut1mRX2VbzAi-Et-139">
          <mxGeometry width="150" height="30" as="geometry">
            <mxRectangle width="150" height="30" as="alternateBounds" />
          </mxGeometry>
        </mxCell>
        <mxCell id="5kgFdut1mRX2VbzAi-Et-141" value="" style="shape=partialRectangle;connectable=0;fillColor=none;top=0;left=0;bottom=0;right=0;align=left;spacingLeft=6;fontStyle=5;overflow=hidden;whiteSpace=wrap;html=1;" vertex="1" parent="5kgFdut1mRX2VbzAi-Et-139">
          <mxGeometry x="150" width="250" height="30" as="geometry">
            <mxRectangle width="250" height="30" as="alternateBounds" />
          </mxGeometry>
        </mxCell>
        <mxCell id="5kgFdut1mRX2VbzAi-Et-142" value="trip_id" style="shape=partialRectangle;connectable=0;fillColor=#dae8fc;top=0;left=0;bottom=0;right=0;align=left;spacingLeft=6;fontStyle=5;overflow=hidden;whiteSpace=wrap;html=1;gradientColor=#7ea6e0;strokeColor=#6c8ebf;" vertex="1" parent="1">
          <mxGeometry x="365" y="-120" width="50" height="30" as="geometry">
            <mxRectangle width="110" height="30" as="alternateBounds" />
          </mxGeometry>
        </mxCell>
        <mxCell id="5kgFdut1mRX2VbzAi-Et-149" value="driver_id" style="shape=partialRectangle;connectable=0;fillColor=#dae8fc;top=0;left=0;bottom=0;right=0;align=left;spacingLeft=6;fontStyle=5;overflow=hidden;whiteSpace=wrap;html=1;gradientColor=#7ea6e0;strokeColor=#6c8ebf;" vertex="1" parent="1">
          <mxGeometry x="280" y="-120" width="70" height="30" as="geometry">
            <mxRectangle width="110" height="30" as="alternateBounds" />
          </mxGeometry>
        </mxCell>
        <mxCell id="5kgFdut1mRX2VbzAi-Et-150" value="passenger_id" style="shape=partialRectangle;connectable=0;fillColor=#dae8fc;top=0;left=0;bottom=0;right=0;align=left;spacingLeft=6;fontStyle=5;overflow=hidden;whiteSpace=wrap;html=1;gradientColor=#7ea6e0;strokeColor=#6c8ebf;" vertex="1" parent="1">
          <mxGeometry x="180" y="-120" width="90" height="30" as="geometry">
            <mxRectangle width="110" height="30" as="alternateBounds" />
          </mxGeometry>
        </mxCell>
        <mxCell id="5kgFdut1mRX2VbzAi-Et-152" value="" style="shape=table;startSize=0;container=1;collapsible=1;childLayout=tableLayout;fixedRows=1;rowLines=0;fontStyle=0;align=center;resizeLast=1;strokeColor=none;fillColor=light-dark(#FFFFFF,#FF9281);collapsible=0;" vertex="1" parent="1">
          <mxGeometry x="20" y="-70" width="370" height="30" as="geometry" />
        </mxCell>
        <mxCell id="5kgFdut1mRX2VbzAi-Et-153" value="" style="shape=tableRow;horizontal=0;startSize=0;swimlaneHead=0;swimlaneBody=0;fillColor=none;collapsible=0;dropTarget=0;points=[[0,0.5],[1,0.5]];portConstraint=eastwest;top=0;left=0;right=0;bottom=1;" vertex="1" parent="5kgFdut1mRX2VbzAi-Et-152">
          <mxGeometry width="370" height="30" as="geometry" />
        </mxCell>
        <mxCell id="5kgFdut1mRX2VbzAi-Et-154" value="&lt;span style=&quot;color: light-dark(rgb(0, 0, 0), rgb(0, 0, 0));&quot;&gt;Score&lt;/span&gt;" style="shape=partialRectangle;connectable=0;fillColor=none;top=0;left=0;bottom=0;right=0;fontStyle=1;overflow=hidden;whiteSpace=wrap;html=1;" vertex="1" parent="5kgFdut1mRX2VbzAi-Et-153">
          <mxGeometry width="80" height="30" as="geometry">
            <mxRectangle width="80" height="30" as="alternateBounds" />
          </mxGeometry>
        </mxCell>
        <mxCell id="5kgFdut1mRX2VbzAi-Et-155" value="" style="shape=partialRectangle;connectable=0;fillColor=none;top=0;left=0;bottom=0;right=0;align=left;spacingLeft=6;fontStyle=5;overflow=hidden;whiteSpace=wrap;html=1;" vertex="1" parent="5kgFdut1mRX2VbzAi-Et-153">
          <mxGeometry x="80" width="290" height="30" as="geometry">
            <mxRectangle width="290" height="30" as="alternateBounds" />
          </mxGeometry>
        </mxCell>
        <mxCell id="5kgFdut1mRX2VbzAi-Et-156" value="score_id" style="shape=partialRectangle;connectable=0;fillColor=#dae8fc;top=0;left=0;bottom=0;right=0;align=left;spacingLeft=6;fontStyle=5;overflow=hidden;whiteSpace=wrap;html=1;gradientColor=#7ea6e0;strokeColor=#6c8ebf;" vertex="1" parent="1">
          <mxGeometry x="100" y="-70" width="70" height="30" as="geometry">
            <mxRectangle width="110" height="30" as="alternateBounds" />
          </mxGeometry>
        </mxCell>
        <mxCell id="5kgFdut1mRX2VbzAi-Et-157" value="trip_id" style="shape=partialRectangle;connectable=0;fillColor=#fad9d5;top=0;left=0;bottom=0;right=0;align=left;spacingLeft=6;fontStyle=5;overflow=hidden;whiteSpace=wrap;html=1;strokeColor=#ae4132;" vertex="1" parent="1">
          <mxGeometry x="170" y="-70" width="60" height="30" as="geometry">
            <mxRectangle width="110" height="30" as="alternateBounds" />
          </mxGeometry>
        </mxCell>
        <mxCell id="5kgFdut1mRX2VbzAi-Et-158" value="message" style="shape=partialRectangle;connectable=0;fillColor=#b0e3e6;top=0;left=0;bottom=0;right=0;align=left;spacingLeft=6;fontStyle=5;overflow=hidden;whiteSpace=wrap;html=1;strokeColor=#0e8088;" vertex="1" parent="1">
          <mxGeometry x="250" y="-70" width="70" height="30" as="geometry">
            <mxRectangle width="110" height="30" as="alternateBounds" />
          </mxGeometry>
        </mxCell>
        <mxCell id="5kgFdut1mRX2VbzAi-Et-159" value="points" style="shape=partialRectangle;connectable=0;fillColor=#b0e3e6;top=0;left=0;bottom=0;right=0;align=left;spacingLeft=6;fontStyle=5;overflow=hidden;whiteSpace=wrap;html=1;strokeColor=#0e8088;" vertex="1" parent="1">
          <mxGeometry x="320" y="-70" width="60" height="30" as="geometry">
            <mxRectangle width="110" height="30" as="alternateBounds" />
          </mxGeometry>
        </mxCell>
        <mxCell id="5kgFdut1mRX2VbzAi-Et-162" value="" style="shape=table;startSize=0;container=1;collapsible=1;childLayout=tableLayout;fixedRows=1;rowLines=0;fontStyle=0;align=center;resizeLast=1;strokeColor=none;fillColor=light-dark(#FFFFFF,#FF9281);collapsible=0;" vertex="1" parent="1">
          <mxGeometry x="560" y="-330" width="480" height="30" as="geometry" />
        </mxCell>
        <mxCell id="5kgFdut1mRX2VbzAi-Et-163" value="" style="shape=tableRow;horizontal=0;startSize=0;swimlaneHead=0;swimlaneBody=0;fillColor=none;collapsible=0;dropTarget=0;points=[[0,0.5],[1,0.5]];portConstraint=eastwest;top=0;left=0;right=0;bottom=1;" vertex="1" parent="5kgFdut1mRX2VbzAi-Et-162">
          <mxGeometry width="480" height="30" as="geometry" />
        </mxCell>
        <mxCell id="5kgFdut1mRX2VbzAi-Et-164" value="&lt;div align=&quot;left&quot;&gt;&lt;span style=&quot;color: light-dark(rgb(0, 0, 0), rgb(0, 0, 0));&quot;&gt;Passenger.user_id DEBE ESTAR en User.user_id&lt;/span&gt;&lt;/div&gt;" style="shape=partialRectangle;connectable=0;fillColor=none;top=0;left=0;bottom=0;right=0;fontStyle=1;overflow=hidden;whiteSpace=wrap;html=1;align=left;" vertex="1" parent="5kgFdut1mRX2VbzAi-Et-163">
          <mxGeometry width="460" height="30" as="geometry">
            <mxRectangle width="460" height="30" as="alternateBounds" />
          </mxGeometry>
        </mxCell>
        <mxCell id="5kgFdut1mRX2VbzAi-Et-165" value="" style="shape=partialRectangle;connectable=0;fillColor=none;top=0;left=0;bottom=0;right=0;align=left;spacingLeft=6;fontStyle=5;overflow=hidden;whiteSpace=wrap;html=1;" vertex="1" parent="5kgFdut1mRX2VbzAi-Et-163">
          <mxGeometry x="460" width="20" height="30" as="geometry">
            <mxRectangle width="20" height="30" as="alternateBounds" />
          </mxGeometry>
        </mxCell>
        <mxCell id="5kgFdut1mRX2VbzAi-Et-166" value="" style="shape=table;startSize=0;container=1;collapsible=1;childLayout=tableLayout;fixedRows=1;rowLines=0;fontStyle=0;align=center;resizeLast=1;strokeColor=none;fillColor=light-dark(#FFFFFF,#FF9281);collapsible=0;" vertex="1" parent="1">
          <mxGeometry x="560" y="-290" width="480" height="30" as="geometry" />
        </mxCell>
        <mxCell id="5kgFdut1mRX2VbzAi-Et-167" value="" style="shape=tableRow;horizontal=0;startSize=0;swimlaneHead=0;swimlaneBody=0;fillColor=none;collapsible=0;dropTarget=0;points=[[0,0.5],[1,0.5]];portConstraint=eastwest;top=0;left=0;right=0;bottom=1;" vertex="1" parent="5kgFdut1mRX2VbzAi-Et-166">
          <mxGeometry width="480" height="30" as="geometry" />
        </mxCell>
        <mxCell id="5kgFdut1mRX2VbzAi-Et-168" value="&lt;div align=&quot;left&quot;&gt;&lt;span style=&quot;color: light-dark(rgb(0, 0, 0), rgb(0, 0, 0));&quot;&gt;Driver.user_id DEBE ESTAR en User.user_id&lt;/span&gt;&lt;/div&gt;" style="shape=partialRectangle;connectable=0;fillColor=none;top=0;left=0;bottom=0;right=0;fontStyle=1;overflow=hidden;whiteSpace=wrap;html=1;align=left;" vertex="1" parent="5kgFdut1mRX2VbzAi-Et-167">
          <mxGeometry width="460" height="30" as="geometry">
            <mxRectangle width="460" height="30" as="alternateBounds" />
          </mxGeometry>
        </mxCell>
        <mxCell id="5kgFdut1mRX2VbzAi-Et-169" value="" style="shape=partialRectangle;connectable=0;fillColor=none;top=0;left=0;bottom=0;right=0;align=left;spacingLeft=6;fontStyle=5;overflow=hidden;whiteSpace=wrap;html=1;" vertex="1" parent="5kgFdut1mRX2VbzAi-Et-167">
          <mxGeometry x="460" width="20" height="30" as="geometry">
            <mxRectangle width="20" height="30" as="alternateBounds" />
          </mxGeometry>
        </mxCell>
        <mxCell id="5kgFdut1mRX2VbzAi-Et-170" value="" style="shape=table;startSize=0;container=1;collapsible=1;childLayout=tableLayout;fixedRows=1;rowLines=0;fontStyle=0;align=center;resizeLast=1;strokeColor=none;fillColor=light-dark(#FFFFFF,#FF9281);collapsible=0;" vertex="1" parent="1">
          <mxGeometry x="561" y="-240" width="480" height="30" as="geometry" />
        </mxCell>
        <mxCell id="5kgFdut1mRX2VbzAi-Et-171" value="" style="shape=tableRow;horizontal=0;startSize=0;swimlaneHead=0;swimlaneBody=0;fillColor=none;collapsible=0;dropTarget=0;points=[[0,0.5],[1,0.5]];portConstraint=eastwest;top=0;left=0;right=0;bottom=1;" vertex="1" parent="5kgFdut1mRX2VbzAi-Et-170">
          <mxGeometry width="480" height="30" as="geometry" />
        </mxCell>
        <mxCell id="5kgFdut1mRX2VbzAi-Et-172" value="&lt;div align=&quot;left&quot;&gt;&lt;span style=&quot;color: light-dark(rgb(0, 0, 0), rgb(0, 0, 0));&quot;&gt;Trip.trip_id PUEDE NO ESTAR en Score.trip_id&lt;/span&gt;&lt;/div&gt;" style="shape=partialRectangle;connectable=0;fillColor=none;top=0;left=0;bottom=0;right=0;fontStyle=1;overflow=hidden;whiteSpace=wrap;html=1;align=left;" vertex="1" parent="5kgFdut1mRX2VbzAi-Et-171">
          <mxGeometry width="460" height="30" as="geometry">
            <mxRectangle width="460" height="30" as="alternateBounds" />
          </mxGeometry>
        </mxCell>
        <mxCell id="5kgFdut1mRX2VbzAi-Et-173" value="" style="shape=partialRectangle;connectable=0;fillColor=none;top=0;left=0;bottom=0;right=0;align=left;spacingLeft=6;fontStyle=5;overflow=hidden;whiteSpace=wrap;html=1;" vertex="1" parent="5kgFdut1mRX2VbzAi-Et-171">
          <mxGeometry x="460" width="20" height="30" as="geometry">
            <mxRectangle width="20" height="30" as="alternateBounds" />
          </mxGeometry>
        </mxCell>
        <mxCell id="5kgFdut1mRX2VbzAi-Et-174" value="" style="shape=table;startSize=0;container=1;collapsible=1;childLayout=tableLayout;fixedRows=1;rowLines=0;fontStyle=0;align=center;resizeLast=1;strokeColor=none;fillColor=light-dark(#FFFFFF,#FF9281);collapsible=0;" vertex="1" parent="1">
          <mxGeometry x="561" y="-200" width="480" height="30" as="geometry" />
        </mxCell>
        <mxCell id="5kgFdut1mRX2VbzAi-Et-175" value="" style="shape=tableRow;horizontal=0;startSize=0;swimlaneHead=0;swimlaneBody=0;fillColor=none;collapsible=0;dropTarget=0;points=[[0,0.5],[1,0.5]];portConstraint=eastwest;top=0;left=0;right=0;bottom=1;" vertex="1" parent="5kgFdut1mRX2VbzAi-Et-174">
          <mxGeometry width="480" height="30" as="geometry" />
        </mxCell>
        <mxCell id="5kgFdut1mRX2VbzAi-Et-176" value="&lt;div align=&quot;left&quot;&gt;&lt;div align=&quot;left&quot;&gt;&lt;span style=&quot;color: light-dark(rgb(0, 0, 0), rgb(0, 0, 0));&quot;&gt;Score.trip_id DEBE ESTAR&lt;/span&gt;&lt;span style=&quot;color: light-dark(rgb(0, 0, 0), rgb(0, 0, 0));&quot;&gt; en Trip.trip_id&lt;/span&gt;&lt;/div&gt;&lt;/div&gt;" style="shape=partialRectangle;connectable=0;fillColor=none;top=0;left=0;bottom=0;right=0;fontStyle=1;overflow=hidden;whiteSpace=wrap;html=1;align=left;" vertex="1" parent="5kgFdut1mRX2VbzAi-Et-175">
          <mxGeometry width="460" height="30" as="geometry">
            <mxRectangle width="460" height="30" as="alternateBounds" />
          </mxGeometry>
        </mxCell>
        <mxCell id="5kgFdut1mRX2VbzAi-Et-177" value="" style="shape=partialRectangle;connectable=0;fillColor=none;top=0;left=0;bottom=0;right=0;align=left;spacingLeft=6;fontStyle=5;overflow=hidden;whiteSpace=wrap;html=1;" vertex="1" parent="5kgFdut1mRX2VbzAi-Et-175">
          <mxGeometry x="460" width="20" height="30" as="geometry">
            <mxRectangle width="20" height="30" as="alternateBounds" />
          </mxGeometry>
        </mxCell>
      </root>
    </mxGraphModel>
  </diagram>
</mxfile>
